<svg width="19" height="16" viewBox="0 0 19 16" fill="none" xmlns="http://www.w3.org/2000/svg">
<path d="M16.1398 3.30781C16.0701 3.02844 15.8721 2.8175 15.6457 2.75281C15.2442 2.6375 13.2926 2.375 9.16758 2.375C5.04258 2.375 3.09192 2.6375 2.68767 2.75281C2.464 2.81656 2.266 3.0275 2.19542 3.30781C2.0955 3.70531 1.83425 5.37031 1.83425 8C1.83425 10.6287 2.0955 12.2938 2.19542 12.6931C2.26508 12.9716 2.46308 13.1825 2.68858 13.2463C3.09192 13.3625 5.04167 13.625 9.16667 13.625C13.2917 13.625 15.2433 13.3625 15.6466 13.2472C15.8703 13.1834 16.0683 12.9725 16.1388 12.6922C16.2397 12.2947 16.5 10.625 16.5 8C16.5 5.375 16.2397 3.70625 16.1398 3.30781ZM17.9144 2.84188C18.3333 4.5125 18.3333 8 18.3333 8C18.3333 8 18.3333 11.4875 17.9144 13.1581C17.6816 14.0816 17.0005 14.8081 16.1379 15.0538C14.5723 15.5 9.16667 15.5 9.16667 15.5C9.16667 15.5 3.76475 15.5 2.19542 15.0538C1.32917 14.8044 0.649 14.0788 0.418917 13.1581C2.73188e-08 11.4875 0 8 0 8C0 8 2.73188e-08 4.5125 0.418917 2.84188C0.65175 1.91844 1.33283 1.19187 2.19542 0.94625C3.76567 0.5 9.16758 0.5 9.16758 0.5C9.16758 0.5 14.5723 0.5 16.1388 0.94625C17.0042 1.19562 17.6853 1.92125 17.9153 2.84188M7.33425 11.2812V4.71875L12.8342 8L7.33425 11.2812Z" fill="#4ABD67"/>
</svg>
