<svg width="20" height="20" viewBox="0 0 20 20" fill="none" xmlns="http://www.w3.org/2000/svg">
<g clip-path="url(#clip0_303_208)">
<path fill-rule="evenodd" clip-rule="evenodd" d="M10 5.45459C8.79452 5.45459 7.63836 5.93348 6.78592 6.78592C5.93348 7.63836 5.45459 8.79452 5.45459 10C5.45459 11.2056 5.93348 12.3617 6.78592 13.2142C7.63836 14.0666 8.79452 14.5455 10 14.5455C11.2056 14.5455 12.3617 14.0666 13.2142 13.2142C14.0666 12.3617 14.5455 11.2056 14.5455 10C14.5455 8.79452 14.0666 7.63836 13.2142 6.78592C12.3617 5.93348 11.2056 5.45459 10 5.45459ZM7.27277 10C7.27277 10.7234 7.56011 11.4171 8.07157 11.9285C8.58303 12.44 9.27673 12.7273 10 12.7273C10.7234 12.7273 11.4171 12.44 11.9285 11.9285C12.44 11.4171 12.7273 10.7234 12.7273 10C12.7273 9.27673 12.44 8.58303 11.9285 8.07157C11.4171 7.56011 10.7234 7.27277 10 7.27277C9.27673 7.27277 8.58303 7.56011 8.07157 8.07157C7.56011 8.58303 7.27277 9.27673 7.27277 10Z" fill="#4ABD67"/>
<path d="M15.4545 3.63623C15.2134 3.63623 14.9822 3.73201 14.8117 3.9025C14.6412 4.07298 14.5454 4.30422 14.5454 4.54532C14.5454 4.78643 14.6412 5.01766 14.8117 5.18815C14.9822 5.35863 15.2134 5.45441 15.4545 5.45441C15.6956 5.45441 15.9268 5.35863 16.0973 5.18815C16.2678 5.01766 16.3636 4.78643 16.3636 4.54532C16.3636 4.30422 16.2678 4.07298 16.0973 3.9025C15.9268 3.73201 15.6956 3.63623 15.4545 3.63623Z" fill="#4ABD67"/>
<path fill-rule="evenodd" clip-rule="evenodd" d="M3.63636 0C2.67194 0 1.74702 0.383116 1.06507 1.06507C0.383116 1.74702 0 2.67194 0 3.63636V16.3636C0 17.3281 0.383116 18.253 1.06507 18.9349C1.74702 19.6169 2.67194 20 3.63636 20H16.3636C17.3281 20 18.253 19.6169 18.9349 18.9349C19.6169 18.253 20 17.3281 20 16.3636V3.63636C20 2.67194 19.6169 1.74702 18.9349 1.06507C18.253 0.383116 17.3281 0 16.3636 0H3.63636ZM16.3636 1.81818H3.63636C3.15415 1.81818 2.69169 2.00974 2.35071 2.35071C2.00974 2.69169 1.81818 3.15415 1.81818 3.63636V16.3636C1.81818 16.8458 2.00974 17.3083 2.35071 17.6493C2.69169 17.9903 3.15415 18.1818 3.63636 18.1818H16.3636C16.8458 18.1818 17.3083 17.9903 17.6493 17.6493C17.9903 17.3083 18.1818 16.8458 18.1818 16.3636V3.63636C18.1818 3.15415 17.9903 2.69169 17.6493 2.35071C17.3083 2.00974 16.8458 1.81818 16.3636 1.81818Z" fill="#4ABD67"/>
</g>
<defs>
<clipPath id="clip0_303_208">
<rect width="20" height="20" fill="white"/>
</clipPath>
</defs>
</svg>
